<?xml version="1.0" encoding="UTF-8" standalone="no"?>
<!-- Generator: Adobe Illustrator 16.0.0, SVG Export Plug-In . SVG Version: 6.00 Build 0)  -->

<svg
   xmlns:dc="http://purl.org/dc/elements/1.1/"
   xmlns:cc="http://creativecommons.org/ns#"
   xmlns:rdf="http://www.w3.org/1999/02/22-rdf-syntax-ns#"
   xmlns:svg="http://www.w3.org/2000/svg"
   xmlns="http://www.w3.org/2000/svg"
   xmlns:sodipodi="http://sodipodi.sourceforge.net/DTD/sodipodi-0.dtd"
   xmlns:inkscape="http://www.inkscape.org/namespaces/inkscape"
   version="1.1"
   id="Layer_1"
   x="0px"
   y="0px"
   width="512px"
   height="512px"
   viewBox="0 0 512 512"
   enable-background="new 0 0 512 512"
   xml:space="preserve"
   inkscape:version="0.91 r13725"
   sodipodi:docname="gear-inactive.svg"><metadata
     id="metadata3390"><rdf:RDF><cc:Work
         rdf:about=""><dc:format>image/svg+xml</dc:format><dc:type
           rdf:resource="http://purl.org/dc/dcmitype/StillImage" /><dc:title></dc:title></cc:Work></rdf:RDF></metadata><defs
     id="defs3388" /><sodipodi:namedview
     pagecolor="#ffffff"
     bordercolor="#666666"
     borderopacity="1"
     objecttolerance="10"
     gridtolerance="10"
     guidetolerance="10"
     inkscape:pageopacity="0"
     inkscape:pageshadow="2"
     inkscape:window-width="1920"
     inkscape:window-height="1016"
     id="namedview3386"
     showgrid="false"
     inkscape:zoom="1.6152344"
     inkscape:cx="256"
     inkscape:cy="256"
     inkscape:window-x="1920"
     inkscape:window-y="27"
     inkscape:window-maximized="1"
     inkscape:current-layer="Layer_1" /><path
     d="M462,280.72v-49.44l-46.414-16.48c-3.903-15.098-9.922-29.343-17.675-42.447l0.063-0.064l21.168-44.473l-34.96-34.96  l-44.471,21.167l-0.064,0.064c-13.104-7.753-27.352-13.772-42.447-17.673L280.72,50h-49.44L214.8,96.415  c-15.096,3.9-29.343,9.919-42.447,17.675l-0.064-0.066l-44.473-21.167l-34.96,34.96l21.167,44.473l0.066,0.064  c-7.755,13.104-13.774,27.352-17.675,42.447L50,231.28v49.44l46.415,16.48c3.9,15.096,9.921,29.343,17.675,42.447l-0.066,0.064  l-21.167,44.471l34.96,34.96l44.473-21.168l0.064-0.063c13.104,7.753,27.352,13.771,42.447,17.675L231.28,462h49.44l16.48-46.414  c15.096-3.903,29.343-9.922,42.447-17.675l0.064,0.063l44.471,21.168l34.96-34.96l-21.168-44.471l-0.063-0.064  c7.753-13.104,13.771-27.352,17.675-42.447L462,280.72z M256,338.4c-45.509,0-82.4-36.892-82.4-82.4c0-45.509,36.891-82.4,82.4-82.4  c45.509,0,82.4,36.891,82.4,82.4C338.4,301.509,301.509,338.4,256,338.4z"
     id="path3384"
     style="fill:#999999" /></svg>